<?xml version="1.0" standalone="no"?>
<!DOCTYPE svg PUBLIC "-//W3C//DTD SVG 20010904//EN"
 "http://www.w3.org/TR/2001/REC-SVG-20010904/DTD/svg10.dtd">
<svg version="1.0" xmlns="http://www.w3.org/2000/svg"
 width="700.000000pt" height="700.000000pt" viewBox="0 0 700.000000 700.000000"
 preserveAspectRatio="xMidYMid meet">
<metadata>
Created by potrace 1.11, written by Peter Selinger 2001-2013
</metadata>
<g transform="translate(0.000000,700.000000) scale(0.100000,-0.100000)"
fill="#000000" stroke="none">
<path d="M3340 6993 c-183 -27 -392 -85 -502 -140 -122 -60 -229 -155 -282
-249 -26 -47 -66 -153 -72 -194 -22 -138 -24 -253 -10 -520 5 -86 -9 -166 -63
-365 -40 -148 -7 -361 115 -741 82 -258 130 -306 329 -330 88 -11 127 -58 126
-151 -1 -108 -75 -214 -187 -268 -52 -25 -94 -38 -459 -139 -110 -31 -315 -88
-455 -127 -140 -39 -277 -80 -305 -92 -83 -35 -197 -96 -241 -130 -71 -55
-160 -205 -198 -338 -26 -88 -24 -67 -41 -454 -3 -60 -7 -153 -10 -205 -2 -52
-7 -153 -10 -225 -3 -71 -8 -170 -10 -220 -2 -49 -7 -160 -10 -245 -4 -85 -8
-186 -10 -225 -4 -66 -14 -276 -21 -430 -14 -333 4 -417 122 -545 63 -67 116
-102 184 -120 42 -11 137 -67 158 -93 6 -7 38 -66 73 -132 68 -131 97 -176
141 -217 36 -33 139 -75 215 -87 60 -10 380 -8 422 2 67 17 119 88 157 217 60
202 76 248 99 275 25 32 36 34 180 25 108 -7 213 61 264 169 24 52 26 66 26
196 -1 234 -52 406 -148 491 -24 21 -59 53 -78 69 -44 40 -137 146 -171 197
-69 102 -100 258 -102 508 -1 202 11 265 76 391 106 203 323 347 578 384 25 3
59 9 75 12 40 7 270 6 315 -1 71 -12 117 -22 155 -34 330 -104 526 -394 528
-782 1 -76 -2 -92 -30 -145 -40 -79 -39 -124 5 -250 53 -153 49 -297 -13 -432
-30 -67 -122 -189 -171 -227 -44 -35 -141 -84 -198 -101 -47 -14 -50 -28 -29
-128 29 -133 99 -219 228 -283 64 -32 85 -37 128 -35 155 9 167 8 192 -23 22
-28 68 -150 79 -210 11 -60 49 -159 79 -204 52 -77 80 -86 292 -89 208 -2 286
10 385 59 76 39 114 88 204 263 31 61 67 120 80 131 38 36 101 72 154 87 71
21 89 33 155 96 101 96 145 202 148 356 1 56 -5 222 -16 425 -2 47 -7 150 -10
230 -3 80 -8 179 -10 220 -2 41 -7 140 -10 220 -3 80 -8 181 -10 225 -2 44 -6
143 -10 220 -3 77 -8 181 -10 230 -2 50 -7 149 -10 220 -7 156 -29 246 -90
370 -57 116 -118 185 -211 239 -128 75 -188 96 -1074 382 -148 47 -199 70
-235 101 -37 33 -72 87 -88 138 -16 49 -20 66 -32 155 -4 25 -10 64 -14 87 -9
47 -7 234 3 276 20 86 78 213 137 302 93 139 162 324 186 500 10 76 11 548 0
640 -33 290 -102 455 -252 599 -65 62 -104 86 -240 147 -28 12 -161 46 -210
54 -22 3 -56 8 -75 11 -44 6 -326 12 -360 7z m-846 -5693 c90 -46 253 -216
324 -338 74 -128 87 -171 62 -216 -23 -43 -65 -58 -171 -61 -109 -3 -132 -12
-210 -87 -48 -45 -69 -88 -114 -233 -64 -204 -76 -216 -207 -219 -68 -1 -206
8 -258 17 -173 32 -225 115 -330 527 -29 113 -23 166 35 310 102 250 141 303
235 320 19 3 159 6 310 5 271 -1 276 -1 324 -25z m2691 7 c70 -39 89 -69 174
-272 82 -194 84 -217 37 -395 -20 -74 -38 -139 -39 -145 -2 -5 -9 -30 -16 -55
-16 -59 -65 -158 -94 -190 -55 -62 -110 -83 -252 -97 -140 -13 -250 -8 -287
14 -30 17 -38 32 -88 184 -63 187 -69 200 -119 246 -80 76 -101 85 -209 88
-84 3 -105 7 -135 27 -20 12 -40 32 -45 43 -27 61 70 237 217 396 85 92 165
152 221 166 19 5 163 9 320 8 246 -1 289 -3 315 -18z"/>
</g>
</svg>
